<svg width="152" height="152" viewBox="0 0 152 152" fill="none" xmlns="http://www.w3.org/2000/svg">
<path fill-rule="evenodd" clip-rule="evenodd" d="M139 76C139 110.794 110.794 139 76 139C41.2061 139 13 110.794 13 76C13 41.2061 41.2061 13 76 13C110.794 13 139 41.2061 139 76ZM75.5004 30C81.0207 30 85.4957 34.4751 85.4957 39.9953V66.5051H112.005C117.525 66.5051 122 70.9801 122 76.5004C122 82.0207 117.525 86.4957 112.005 86.4957H85.4957V113.005C85.4957 118.525 81.0207 123 75.5004 123C69.9801 123 65.5051 118.525 65.5051 113.005V86.4957H38.9953C33.4751 86.4957 29 82.0207 29 76.5004C29 70.9801 33.4751 66.5051 38.9953 66.5051H65.5051V39.9953C65.5051 34.4751 69.9801 30 75.5004 30Z" fill="white"/>
</svg>
