<svg width="152" height="152" viewBox="0 0 152 152" fill="none" xmlns="http://www.w3.org/2000/svg">
<path d="M97.0061 33.3243C93.2796 29.5977 88.8537 25.7556 84.496 22.7387C80.4897 19.9651 76.5888 20.4933 71.8432 20.4933C63.6751 20.4933 54.1253 23.8671 48.5337 30.1165C45.4807 33.5286 42.2795 36.7271 38.9461 40.0605C34.3559 44.6507 32.6193 50.5067 30.4278 56.4912C28.0878 62.8813 28.2923 69.5735 26.7567 76.0228C25.0431 83.2201 28.0844 91.4242 29.9288 98.2988C32.5731 108.155 37.0289 121.701 46.9654 126.669C56.3235 131.348 67.1497 132.475 77.4389 133.37C91.2329 134.569 106.789 124.389 112.546 112.235C114.128 108.894 116.719 106.214 118.177 102.932C119.042 100.985 120.953 99.3013 121.349 97.1226C121.974 93.6888 120.259 95.8475 118.819 96.6949C116.085 98.303 114.373 101.95 111.441 103.253C107.483 105.012 104.414 107.72 100.071 108.528C96.0747 109.271 92.0279 111.079 87.9888 109.312C82.5006 106.911 79.0128 104.862 74.6946 100.544C69.3618 95.2114 67.495 85.8809 67.495 78.5533C67.495 66.2999 77.229 54.2199 87.7037 48.4006C92.4291 45.7754 99.12 41.8453 104.669 43.2326C105.093 43.3385 100.301 36.6189 99.0734 35.3915C97.4731 33.7912 93.3951 32.5175 92.5153 30.7581" stroke="black" stroke-width="10" stroke-linecap="round"/>
</svg>
