<svg width="29" height="30" viewBox="0 0 29 30" fill="none" xmlns="http://www.w3.org/2000/svg">
<path d="M26.8139 0H22.0996V6.86829H28.9979V1.93668C28.9997 1.93668 28.657 0.1873 26.8139 0Z" fill="#1967D2"/>
<path d="M22.1016 29.1255V29.1424V29.1574L28.9998 22.2891H28.938L22.1016 29.1255Z" fill="#1967D2"/>
<path d="M28.9996 22.2887V22.2266L28.9375 22.2887H28.9996Z" fill="#FBBC05"/>
<path d="M28.9998 6.86816H22.1016V22.2268H28.9998V6.86816Z" fill="#FBBC05"/>
<path d="M28.938 22.2891H22.1016V29.1255L28.938 22.2891Z" fill="#EA4335"/>
<path d="M22.1016 22.2884H28.938L28.9998 22.2266H22.1016V22.2884Z" fill="#EA4335"/>
<path d="M22.084 29.1403H22.1003V29.124L22.084 29.1403Z" fill="#34A853"/>
<path d="M6.74316 22.2266V29.1417H22.0849L22.1018 22.2266H6.74316Z" fill="#34A853"/>
<path d="M22.1008 22.2884V22.2266L22.084 29.1417L22.1008 29.1248V22.2884Z" fill="#34A853"/>
<path d="M0 22.2266V27.0346C0.061809 28.5948 1.74002 29.1417 1.74002 29.1417H6.7428V22.2266H0Z" fill="#188038"/>
<path d="M6.7428 6.86829H22.1014V0H1.93481C1.93481 0 0.123618 0.1873 0 2.12211V22.2269H6.7428V6.86829Z" fill="#4285F4"/>
<path d="M11.7669 19.118C11.4155 19.118 11.0767 19.072 10.7504 18.9799C10.4325 18.8879 10.1397 18.7499 9.872 18.5658C9.60428 18.3734 9.36585 18.135 9.1567 17.8505C8.95591 17.5661 8.80114 17.2356 8.69238 16.8591L10.2359 16.2442C10.3447 16.6625 10.5287 16.9804 10.7881 17.198C11.0474 17.4071 11.3737 17.5117 11.7669 17.5117C11.9426 17.5117 12.1099 17.4866 12.2689 17.4364C12.4278 17.3778 12.5659 17.2983 12.683 17.198C12.8001 17.0976 12.8921 16.9804 12.9591 16.8466C13.0344 16.7044 13.072 16.5454 13.072 16.3697C13.072 16.0016 12.934 15.713 12.6579 15.5038C12.3902 15.2947 12.0179 15.1901 11.541 15.1901H10.8006V13.6968H11.4783C11.6456 13.6968 11.8087 13.6758 11.9677 13.634C12.1267 13.5922 12.2647 13.5294 12.3818 13.4458C12.5073 13.3537 12.6035 13.2408 12.6704 13.1069C12.7457 12.9647 12.7834 12.8016 12.7834 12.6175C12.7834 12.3331 12.683 12.103 12.4822 11.9273C12.2814 11.7433 12.0095 11.6513 11.6665 11.6513C11.2984 11.6513 11.014 11.7516 10.8132 11.9524C10.6208 12.1449 10.4869 12.3624 10.4116 12.605L8.90572 11.9901C8.98101 11.7809 9.09395 11.5676 9.24454 11.3501C9.39513 11.1242 9.58337 10.9234 9.80925 10.7477C10.0435 10.5637 10.3154 10.4173 10.6249 10.3085C10.9345 10.1914 11.29 10.1328 11.6916 10.1328C12.1016 10.1328 12.4738 10.1914 12.8085 10.3085C13.1515 10.4256 13.4443 10.5888 13.6869 10.7979C13.9295 10.9987 14.1178 11.2413 14.2516 11.5258C14.3855 11.8018 14.4524 12.103 14.4524 12.4293C14.4524 12.6803 14.419 12.9062 14.352 13.1069C14.2935 13.3077 14.214 13.4876 14.1136 13.6466C14.0132 13.8055 13.8961 13.9436 13.7622 14.0607C13.6367 14.1694 13.5071 14.2573 13.3732 14.3242V14.4246C13.7748 14.5836 14.1052 14.8387 14.3646 15.1901C14.6323 15.5415 14.7661 15.9849 14.7661 16.5203C14.7661 16.8968 14.695 17.244 14.5528 17.5619C14.4106 17.8714 14.2056 18.1433 13.9379 18.3776C13.6786 18.6118 13.3648 18.7917 12.9967 18.9172C12.6286 19.051 12.2187 19.118 11.7669 19.118Z" fill="#4285F4"/>
<path d="M17.7629 18.9172V12.2662L16.2445 12.9062L15.6421 11.5132L18.1645 10.3336H19.4069V18.9172H17.7629Z" fill="#4285F4"/>
</svg>
