<svg width="38" height="40" viewBox="0 0 38 40" fill="none" xmlns="http://www.w3.org/2000/svg">
<g filter="url(#filter0_d_426_1568)">
<path d="M31.5476 0H26.7042V7.53812H33.7913V2.12556C33.7932 2.12556 33.441 0.205566 31.5476 0Z" fill="#1967D2"/>
<path d="M26.7062 31.9661V31.9846V32.001L33.7932 24.4629H33.7297L26.7062 31.9661Z" fill="#1967D2"/>
<path d="M33.7936 24.4627V24.3945L33.7297 24.4627H33.7936Z" fill="#FBBC05"/>
<path d="M33.7932 7.53906H26.7062V24.3955H33.7932V7.53906Z" fill="#FBBC05"/>
<path d="M33.7297 24.4629H26.7062V31.9661L33.7297 24.4629Z" fill="#EA4335"/>
<path d="M26.7062 24.4624H33.7297L33.7932 24.3945H26.7062V24.4624Z" fill="#EA4335"/>
<path d="M26.6889 31.9834H26.7063V31.9648L26.6889 31.9834Z" fill="#34A853"/>
<path d="M10.9273 24.3945V31.984H26.6889L26.7062 24.3945H10.9273Z" fill="#34A853"/>
<path d="M26.7062 24.4624V24.3945L26.6889 31.984L26.7062 31.9655V24.4624Z" fill="#34A853"/>
<path d="M4 24.3945V29.6714C4.0635 31.3838 5.78763 31.984 5.78763 31.984H10.9273V24.3945H4Z" fill="#188038"/>
<path d="M10.9273 7.53812H26.7062V0H5.98776C5.98776 0 4.127 0.205566 4 2.32907V24.3946H10.9273V7.53812Z" fill="#4285F4"/>
<path d="M16.0896 20.9825C15.7286 20.9825 15.3805 20.932 15.0453 20.831C14.7187 20.73 14.4178 20.5785 14.1428 20.3765C13.8678 20.1653 13.6228 19.9036 13.4079 19.5915C13.2017 19.2793 13.0426 18.9166 12.9309 18.5034L14.5167 17.8285C14.6284 18.2876 14.8175 18.6365 15.084 18.8753C15.3504 19.1048 15.6856 19.2196 16.0896 19.2196C16.2701 19.2196 16.442 19.192 16.6053 19.1369C16.7686 19.0727 16.9104 18.9854 17.0307 18.8753C17.1511 18.7651 17.2456 18.6365 17.3144 18.4896C17.3917 18.3335 17.4304 18.1591 17.4304 17.9662C17.4304 17.5622 17.2886 17.2455 17.0049 17.0159C16.7299 16.7864 16.3474 16.6716 15.8575 16.6716H15.0969V15.0326H15.793C15.9649 15.0326 16.1325 15.0097 16.2959 14.9637C16.4592 14.9178 16.601 14.849 16.7213 14.7572C16.8502 14.6561 16.9491 14.5322 17.0178 14.3853C17.0952 14.2292 17.1339 14.0501 17.1339 13.8481C17.1339 13.536 17.0307 13.2834 16.8244 13.0906C16.6182 12.8886 16.3388 12.7876 15.9864 12.7876C15.6083 12.7876 15.316 12.8978 15.1097 13.1182C14.9121 13.3294 14.7745 13.5681 14.6972 13.8344L13.1501 13.1595C13.2274 12.9299 13.3435 12.6958 13.4982 12.4571C13.6529 12.2092 13.8463 11.9888 14.0783 11.796C14.319 11.594 14.5983 11.4333 14.9164 11.3139C15.2344 11.1854 15.5997 11.1211 16.0122 11.1211C16.4334 11.1211 16.8159 11.1854 17.1597 11.3139C17.512 11.4425 17.8129 11.6215 18.0621 11.8511C18.3114 12.0714 18.5048 12.3377 18.6423 12.6499C18.7798 12.9529 18.8486 13.2834 18.8486 13.6415C18.8486 13.917 18.8142 14.1649 18.7454 14.3853C18.6853 14.6056 18.6036 14.8031 18.5005 14.9775C18.3973 15.152 18.277 15.3035 18.1395 15.432C18.0106 15.5514 17.8773 15.6478 17.7398 15.7213V15.8314C18.1524 16.0059 18.4919 16.2859 18.7583 16.6716C19.0334 17.0572 19.1709 17.5439 19.1709 18.1315C19.1709 18.5447 19.0978 18.9258 18.9517 19.2747C18.8056 19.6144 18.595 19.9128 18.32 20.1699C18.0535 20.427 17.7312 20.6244 17.353 20.7622C16.9749 20.9091 16.5537 20.9825 16.0896 20.9825Z" fill="#4285F4"/>
<path d="M22.2497 20.7622V13.4625L20.6897 14.1649L20.0708 12.6361L22.6622 11.3415H23.9386V20.7622H22.2497Z" fill="#4285F4"/>
</g>
<defs>
<filter id="filter0_d_426_1568" x="0" y="0" width="37.7936" height="40.001" filterUnits="userSpaceOnUse" color-interpolation-filters="sRGB">
<feFlood flood-opacity="0" result="BackgroundImageFix"/>
<feColorMatrix in="SourceAlpha" type="matrix" values="0 0 0 0 0 0 0 0 0 0 0 0 0 0 0 0 0 0 127 0" result="hardAlpha"/>
<feOffset dy="4"/>
<feGaussianBlur stdDeviation="2"/>
<feComposite in2="hardAlpha" operator="out"/>
<feColorMatrix type="matrix" values="0 0 0 0 0 0 0 0 0 0 0 0 0 0 0 0 0 0 0.25 0"/>
<feBlend mode="normal" in2="BackgroundImageFix" result="effect1_dropShadow_426_1568"/>
<feBlend mode="normal" in="SourceGraphic" in2="effect1_dropShadow_426_1568" result="shape"/>
</filter>
</defs>
</svg>
