<svg width="28" height="25" viewBox="0 0 28 25" fill="none" xmlns="http://www.w3.org/2000/svg">
<path d="M14.0023 8.06354L9.59757 0.428721C9.74382 0.282472 9.91209 0.186546 10.0804 0.12207C8.78141 0.541946 8.1854 1.97456 8.1854 1.97456L0.138579 15.9185C0.0253538 16.3557 -0.0061002 16.7504 0.0080529 17.0979H8.79084L14.0023 8.06354Z" fill="#34A853"/>
<path d="M14.0029 8.06354L19.2144 17.0979H27.9972C28.0114 16.7504 27.9799 16.3557 27.8667 15.9185L19.8199 1.97456C19.8199 1.97456 19.2223 0.541946 17.9249 0.12207C18.0916 0.186546 18.2614 0.282472 18.4077 0.428721L14.0029 8.06354Z" fill="#FBBC05"/>
<path d="M14.0024 8.06446L18.4072 0.429641C18.2609 0.283392 18.0911 0.187466 17.9244 0.12299C17.7326 0.0616603 17.5265 0.0207736 17.3032 0.00976562H17.0705H10.9343H10.7016C10.4799 0.019201 10.2723 0.0600877 10.0804 0.12299C9.91374 0.187466 9.74391 0.283392 9.59766 0.429641L14.0024 8.06446Z" fill="#188038"/>
<path d="M8.79237 17.0986L4.43793 24.647C4.43793 24.647 4.29325 24.5778 4.09668 24.4347C4.7147 24.9017 5.31542 25.0008 5.31542 25.0008H22.4171C23.3606 25.0008 23.5572 24.647 23.5572 24.647C23.5604 24.6454 23.5619 24.6438 23.5651 24.6422L19.2138 17.0986H8.79237Z" fill="#4285F4"/>
<path d="M8.79256 17.0986H0.00976562C0.0537975 18.1239 0.506698 18.7231 0.506698 18.7231L0.836938 19.2861C0.860526 19.3191 0.874678 19.338 0.874678 19.338L1.59334 20.5772L3.20679 23.3354C3.25397 23.4471 3.30901 23.5493 3.3672 23.6468C3.38921 23.6798 3.40966 23.716 3.43324 23.7474C3.43953 23.7569 3.44582 23.7663 3.45211 23.7758C3.65183 24.0525 3.87514 24.2664 4.09844 24.4347C4.29501 24.5793 4.43969 24.647 4.43969 24.647L8.79256 17.0986Z" fill="#1967D2"/>
<path d="M19.2139 17.0986H27.9967C27.9526 18.1239 27.4997 18.7231 27.4997 18.7231L27.1695 19.2861C27.1459 19.3191 27.1317 19.338 27.1317 19.338L26.4131 20.5772L24.7996 23.3354C24.7524 23.4471 24.6974 23.5493 24.6392 23.6468C24.6172 23.6798 24.5968 23.716 24.5732 23.7474C24.5669 23.7569 24.5606 23.7663 24.5543 23.7758C24.3546 24.0525 24.1313 24.2664 23.908 24.4347C23.7114 24.5793 23.5667 24.647 23.5667 24.647L19.2139 17.0986Z" fill="#EA4335"/>
</svg>
