<svg width="245" height="138" viewBox="0 0 245 138" fill="none" xmlns="http://www.w3.org/2000/svg">
<g clip-path="url(#clip0_466_1800)">
<path d="M70.248 94.28C68.6267 94.28 67.2613 93.8107 66.152 92.872C65.128 91.9333 64.616 90.7387 64.616 89.288V73.672C64.616 70.5147 63.8907 68.2533 62.44 66.888C61.0747 65.5227 59.368 64.84 57.32 64.84C55.1867 64.84 53.3947 65.5227 51.944 66.888C50.5787 68.2533 49.7253 69.832 49.384 71.624V88.776C49.384 90.2267 48.8293 91.464 47.72 92.488C46.696 93.4267 45.416 93.896 43.88 93.896C42.2587 93.896 40.8933 93.4267 39.784 92.488C38.6747 91.5493 38.12 90.3547 38.12 88.904V60.232C38.12 58.8667 38.632 57.7147 39.656 56.776C40.7653 55.752 42.1733 55.24 43.88 55.24C45.2453 55.24 46.3973 55.624 47.336 56.392C48.2747 57.0747 48.9147 57.9707 49.256 59.08C51.56 56.0933 55.0587 54.6 59.752 54.6C64.5307 54.6 68.4133 56.008 71.4 58.824C74.3867 61.64 75.88 66.12 75.88 72.264V89.544C75.88 90.9093 75.3253 92.0613 74.216 93C73.192 93.8533 71.8693 94.28 70.248 94.28ZM101.879 94.28C96.1617 94.28 91.5537 92.488 88.055 88.904C84.6417 85.2347 82.935 80.3707 82.935 74.312C82.935 68.2533 84.599 63.4747 87.927 59.976C91.3403 56.392 95.863 54.6 101.495 54.6C105.164 54.6 108.45 55.9227 111.351 58.568V41.8C111.351 40.3493 111.863 39.1547 112.887 38.216C113.911 37.192 115.234 36.68 116.855 36.68C118.562 36.68 119.927 37.192 120.951 38.216C122.06 39.1547 122.615 40.3067 122.615 41.672V89.288C122.615 90.7387 122.06 91.9333 120.951 92.872C119.927 93.8107 118.562 94.28 116.855 94.28C114.124 94.28 112.375 93.0853 111.607 90.696C108.962 93.0853 105.719 94.28 101.879 94.28ZM102.775 83.912C105.335 83.912 107.383 83.016 108.919 81.224C110.54 79.3467 111.351 77.0427 111.351 74.312C111.351 71.496 110.54 69.2347 108.919 67.528C107.383 65.8213 105.335 64.968 102.775 64.968C100.13 64.968 97.9963 65.8213 96.375 67.528C94.839 69.2347 94.071 71.496 94.071 74.312C94.071 77.0427 94.839 79.3467 96.375 81.224C97.9963 83.016 100.13 83.912 102.775 83.912ZM150.293 94.28C144.49 94.28 139.584 92.5733 135.573 89.16C131.648 85.6613 129.685 80.8827 129.685 74.824C129.685 68.5093 131.605 63.56 135.445 59.976C139.37 56.392 144.277 54.6 150.165 54.6C154.346 54.6 157.802 55.368 160.533 56.904C163.264 58.44 165.312 60.4027 166.677 62.792C168.042 65.1813 168.725 67.6987 168.725 70.344C168.725 74.7813 166.762 77 162.837 77H141.589C140.906 77 140.565 77.4267 140.565 78.28C140.565 80.2427 141.632 81.8213 143.765 83.016C145.984 84.1253 148.458 84.68 151.189 84.68C152.896 84.68 154.602 84.4667 156.309 84.04C158.016 83.528 159.509 82.8027 160.789 81.864C161.642 81.2667 162.538 80.968 163.477 80.968C164.757 80.968 165.824 81.4373 166.677 82.376C167.616 83.3147 168.085 84.424 168.085 85.704C168.085 87.24 167.274 88.6907 165.653 90.056C164.117 91.336 161.856 92.36 158.869 93.128C155.968 93.896 153.109 94.28 150.293 94.28ZM156.949 69.576C157.12 69.576 157.333 69.5333 157.589 69.448C157.93 69.3627 158.101 69.064 158.101 68.552C158.101 67.272 157.29 66.12 155.669 65.096C154.133 63.9867 152.128 63.432 149.653 63.432C147.008 63.432 144.832 64.0293 143.125 65.224C141.504 66.3333 140.693 67.4853 140.693 68.68C140.693 69.2773 141.034 69.576 141.717 69.576H156.949ZM178.29 94.28C176.839 94.28 175.517 93.7253 174.322 92.616C173.127 91.5067 172.53 90.2267 172.53 88.776C172.53 87.4107 173.085 86.1307 174.194 84.936L183.026 75.848C183.538 75.1653 183.794 74.568 183.794 74.056C183.794 73.3733 183.538 72.776 183.026 72.264L174.066 63.304C173.213 62.1947 172.786 61.0853 172.786 59.976C172.786 58.5253 173.426 57.288 174.706 56.264C175.986 55.1547 177.394 54.6 178.93 54.6C180.551 54.6 181.831 55.1973 182.77 56.392L189.938 64.712C190.45 65.224 190.962 65.48 191.474 65.48C192.157 65.48 192.669 65.224 193.01 64.712L200.05 56.392C200.989 55.1973 202.269 54.6 203.89 54.6C205.426 54.6 206.834 55.1547 208.114 56.264C209.394 57.288 210.034 58.568 210.034 60.104C210.034 61.128 209.607 62.1947 208.754 63.304L199.794 72.264C199.282 72.776 199.026 73.3733 199.026 74.056C199.026 74.568 199.282 75.1653 199.794 75.848L208.626 84.936C209.735 86.1307 210.29 87.4107 210.29 88.776C210.29 90.2267 209.693 91.5067 208.498 92.616C207.303 93.7253 205.981 94.28 204.53 94.28C202.994 94.28 201.714 93.64 200.69 92.36L193.01 83.272C192.669 82.76 192.157 82.504 191.474 82.504C190.962 82.504 190.45 82.76 189.938 83.272L182.13 92.36C181.533 93.0427 180.893 93.512 180.21 93.768C179.613 94.1093 178.973 94.28 178.29 94.28Z" fill="white"/>
</g>
<defs>
<clipPath id="clip0_466_1800">
<rect width="245" height="138" fill="white"/>
</clipPath>
</defs>
</svg>
