<?xml version="1.0" standalone="no"?>
<!DOCTYPE svg PUBLIC "-//W3C//DTD SVG 20010904//EN"
 "http://www.w3.org/TR/2001/REC-SVG-20010904/DTD/svg10.dtd">
<svg version="1.0" xmlns="http://www.w3.org/2000/svg"
 width="500.000000pt" height="500.000000pt" viewBox="0 0 500.000000 500.000000"
 preserveAspectRatio="xMidYMid meet">

<g transform="translate(0.000000,500.000000) scale(0.100000,-0.100000)"
fill="#000000" stroke="none">
<path d="M2780 3130 c-58 -4 -129 -8 -157 -9 l-53 -1 -2 -450 -3 -449 -92 107
c-139 162 -272 320 -328 388 -27 34 -78 95 -113 135 -35 41 -91 107 -125 147
l-62 74 -195 -7 c-107 -4 -199 -10 -203 -15 -9 -8 -10 -106 -8 -788 l1 -452
178 2 177 3 3 373 2 373 48 -54 c26 -29 101 -113 167 -186 66 -72 137 -153
159 -179 21 -26 70 -81 110 -123 39 -41 97 -105 129 -142 l58 -67 219 0 219 0
3 653 c2 360 -1 658 -6 665 -5 6 -11 11 -15 10 -3 -1 -53 -5 -111 -8z"/>
<path d="M2968 1812 l-3 -229 -27 -35 c-15 -20 -45 -47 -65 -60 l-38 -23 -653
2 c-423 1 -651 -1 -647 -8 11 -16 121 -68 172 -80 33 -8 331 -12 989 -13 l942
-2 -321 335 c-177 185 -327 337 -334 339 -9 3 -13 -51 -15 -226z"/>
</g>
</svg>
