<?xml version="1.0" standalone="no"?>
<!DOCTYPE svg PUBLIC "-//W3C//DTD SVG 20010904//EN"
 "http://www.w3.org/TR/2001/REC-SVG-20010904/DTD/svg10.dtd">
<svg version="1.0" xmlns="http://www.w3.org/2000/svg"
 width="256.000000pt" height="256.000000pt" viewBox="0 0 256.000000 256.000000"
 preserveAspectRatio="xMidYMid meet">

<g transform="translate(0.000000,256.000000) scale(0.100000,-0.100000)"
fill="#000000" stroke="none">
<path d="M475 2301 c-82 -20 -154 -79 -196 -161 l-24 -45 0 -810 0 -810 28
-57 c32 -64 80 -111 146 -142 46 -21 54 -21 851 -21 797 0 805 0 851 21 66 31
114 78 146 142 l28 57 3 383 3 382 -35 0 -35 0 -3 -377 c-3 -347 -5 -381 -22
-413 -26 -49 -55 -79 -101 -103 -40 -22 -40 -22 -835 -22 -795 0 -795 0 -835
22 -46 24 -75 54 -101 103 -18 33 -19 76 -22 810 -2 594 0 786 10 820 16 58
87 131 144 148 29 8 147 12 403 12 l361 0 0 35 0 35 -367 -1 c-203 -1 -381 -4
-398 -8z"/>
<path d="M1727 2303 c-2 -5 -4 -20 -5 -35 l-2 -28 230 0 c127 0 230 -1 230 -3
0 -1 -208 -211 -462 -465 l-462 -463 27 -27 27 -27 462 463 c255 254 464 462
465 462 2 0 3 -104 3 -230 l0 -231 28 5 c15 2 30 5 35 5 4 1 7 132 7 291 l0
290 -289 0 c-160 0 -292 -3 -294 -7z"/>
</g>
</svg>
